<?xml version="1.0" encoding="iso-8859-1"?>
<!-- Uploaded to: SVG Repo, www.svgrepo.com, Generator: SVG Repo Mixer Tools -->
<svg height="40px" width="40px" version="1.1" id="Layer_1" xmlns="http://www.w3.org/2000/svg" xmlns:xlink="http://www.w3.org/1999/xlink" 
	 viewBox="0 0 512.182 512.182" xml:space="preserve">
<path style="fill:#FFE356;" d="M256.091,0c141.392,0,256,114.608,256,256s-114.608,256-256,256s-256-114.608-256-256
	S114.699,0,256.091,0z"/>
<path style="fill:#F7CB48;" d="M170.819,221.381h165.99v106.409c0,45.552-37.352,82.904-82.904,82.904l0,0
	c-45.552,0-82.904-37.352-82.904-82.904V221.381H170.819z"/>
<path style="fill:#FF7069;" d="M195.781,71.789l-35.712,3.098c0,0-62.315-8.017-75.069,46.463
	c-12.754,54.298-42.819,111.875-42.819,111.875l69.603,30.611l20.772-42.818v259.462c36.623,20.225,78.713,31.704,123.354,31.704
	c44.823,0,86.912-11.479,123.354-31.704V221.016l20.772,42.818l69.603-30.611c0,0-29.882-57.395-42.819-111.875
	c-12.754-54.298-75.069-46.463-75.069-46.463l-35.712-3.098c-2.733,25.509-28.606,45.552-60.31,45.552s-57.577-20.043-60.31-45.552
	H195.781z"/>
<g>
	<path style="fill:#FFFFFF;" d="M195.781,71.789l-15.123,1.275c4.373,32.433,36.441,57.577,75.433,57.577
		c38.81,0,70.878-25.144,75.433-57.577l-15.123-1.275c-2.733,25.509-28.606,45.552-60.31,45.552S198.514,97.298,195.781,71.789z"/>
	<path style="fill:#FFFFFF;" d="M50.38,216.643c-4.737,10.386-8.017,16.581-8.017,16.581l69.603,30.611l7.288-14.941L50.38,216.826
		V216.643z M393.11,248.712l7.288,14.941l69.603-30.611c0,0-3.28-6.195-8.017-16.581L393.11,248.53V248.712z"/>
</g>
</svg>